<svg xmlns="http://www.w3.org/2000/svg" viewBox="0 0 256 256" width="256" height="256" fill="none">
  <rect width="256" height="256" rx="56" fill="#0f172a"/>
  <!-- Layer 1: Frontend UI Layer -->
  <path d="M128 52L202 88L128 124L54 88L128 52Z" fill="#1e293b" stroke="#3b82f6" stroke-width="4" stroke-linejoin="round"/>
  <path d="M128 66L182 92L128 112L74 92L128 66Z" fill="#1d4ed8" fill-opacity="0.25" stroke="#60a5fa" stroke-width="2" stroke-linejoin="round"/>
  <path d="M112 86L102 91L112 96" stroke="#93c5fd" stroke-width="2.5" stroke-linecap="round" stroke-linejoin="round"/>
  <path d="M144 86L154 91L144 96" stroke="#93c5fd" stroke-width="2.5" stroke-linecap="round" stroke-linejoin="round"/>
  <line x1="128" y1="124" x2="128" y2="136" stroke="#60a5fa" stroke-width="3" stroke-dasharray="3 3"/>
  <!-- Layer 2: API & Logic Layer -->
  <path d="M128 94L202 130L128 166L54 130L128 94Z" fill="#172554" stroke="#2563eb" stroke-width="4" stroke-linejoin="round"/>
  <circle cx="128" cy="130" r="6" fill="#60a5fa"/>
  <line x1="92" y1="130" x2="122" y2="130" stroke="#3b82f6" stroke-width="2.5" stroke-linecap="round"/>
  <line x1="134" y1="130" x2="164" y2="130" stroke="#3b82f6" stroke-width="2.5" stroke-linecap="round"/>
  <line x1="128" y1="166" x2="128" y2="178" stroke="#60a5fa" stroke-width="3" stroke-dasharray="3 3"/>
  <!-- Layer 3: Database & Storage Layer -->
  <path d="M128 136L202 172L128 208L54 172L128 136Z" fill="#0f172a" stroke="#1d4ed8" stroke-width="4" stroke-linejoin="round"/>
  <ellipse cx="128" cy="172" rx="36" ry="14" fill="#1e293b" stroke="#3b82f6" stroke-width="2"/>
  <path d="M92 172V180C92 187.732 108.118 194 128 194C147.882 194 164 187.732 164 180V172" stroke="#3b82f6" stroke-width="2"/>
  <!-- Integration Arcs -->
  <path d="M40 88 C30 110, 30 150, 40 172" stroke="#60a5fa" stroke-width="3" stroke-linecap="round" stroke-dasharray="4 4"/>
  <path d="M216 88 C226 110, 226 150, 216 172" stroke="#60a5fa" stroke-width="3" stroke-linecap="round" stroke-dasharray="4 4"/>
  <circle cx="196" cy="44" r="5" fill="#3b82f6"/>
</svg>